<?xml version="1.0"?>
<svg xmlns="http://www.w3.org/2000/svg" id="Layer_1" data-name="Layer 1" viewBox="0 0 512 512" width="512px" height="512px" class="hovered-paths"><g><title>Database Cloud2</title><path d="M244.651,62.5a5.992,5.992,0,0,0,6.194,1.758c.309-.093.621-.174.932-.262A55.632,55.632,0,0,0,244.651,62.5Z" style="fill:#5368F14D" data-original="#D4E1F4" class="hovered-path active-path" data-old_color="#D4E1F4"/><path d="M63.5,175.4a55.655,55.655,0,0,1,35.631-51.9,6.012,6.012,0,0,0,3.847-5.884c-.063-1.369-.093-2.62-.093-3.817a80.276,80.276,0,0,1,65.2-78.737,80.186,80.186,0,0,0-95.2,78.737c0,1.2.03,2.448.093,3.817a6.012,6.012,0,0,1-3.847,5.884A55.609,55.609,0,0,0,89.038,231h30A55.658,55.658,0,0,1,63.5,175.4Z" style="fill:#5368F14D" data-original="#D4E1F4" class="hovered-path active-path" data-old_color="#D4E1F4"/><path d="M377.748,173h-1.563A5.969,5.969,0,0,0,377.748,173Z" style="fill:#5368F14D" data-original="#D4E1F4" class="hovered-path active-path" data-old_color="#D4E1F4"/><path d="M220.5,218.5A45.58,45.58,0,0,1,266.189,173h-30a45.5,45.5,0,1,0,0,91h30A45.58,45.58,0,0,1,220.5,218.5Z" style="fill:#5368F14D" data-original="#D4E1F4" class="hovered-path active-path" data-old_color="#D4E1F4"/><path d="M220.5,345.5A45.58,45.58,0,0,1,266.189,300h-30a45.5,45.5,0,1,0,0,91h30A45.58,45.58,0,0,1,220.5,345.5Z" style="fill:#5368F14D" data-original="#D4E1F4" class="hovered-path active-path" data-old_color="#D4E1F4"/><path d="M303.872,110.2a67.553,67.553,0,0,0-82.691-58.448A92.072,92.072,0,0,0,61,113.789v.142a71.275,71.275,0,0,0-19.653,13.645A67.6,67.6,0,0,0,89.038,243H187.8a6,6,0,0,0,0-12H89.038A55.614,55.614,0,0,1,69.131,123.494a6.012,6.012,0,0,0,3.847-5.884c-.063-1.369-.093-2.62-.093-3.817A80.151,80.151,0,0,1,214.517,62.365a6,6,0,0,0,6.328,1.9,55.532,55.532,0,0,1,71.368,50.991,6,6,0,0,0,4.808,5.647A55.464,55.464,0,0,1,341,167.853a6,6,0,1,0,11.893-1.6A67.48,67.48,0,0,0,303.872,110.2Z" style="fill:#5368F1" data-original="#0635C9" class="" data-old_color="#0635C9"/><path d="M490.281,218.679A57.559,57.559,0,0,0,432.811,161H236.189A57.666,57.666,0,0,0,231,276.08v11.766A57.7,57.7,0,0,0,236.189,403H338v27.087A30.7,30.7,0,0,0,314.034,454h-42.78a25.1,25.1,0,1,0,0,12h42.78a30.438,30.438,0,0,0,59.682,0H416.5a25.152,25.152,0,1,0,0-12h-42.78A30.408,30.408,0,0,0,350,430.087V403h82.811A57.7,57.7,0,0,0,438,287.846V276.08A57.3,57.3,0,0,0,490.281,218.679ZM246.858,473.053a13.125,13.125,0,1,1,13.125-13.125A13.14,13.14,0,0,1,246.858,473.053ZM440.892,446.8a13.125,13.125,0,1,1-13.125,13.125A13.139,13.139,0,0,1,440.892,446.8Zm-78.58,13.125a18.437,18.437,0,1,1-18.437-18.438A18.458,18.458,0,0,1,362.312,459.928ZM243,288V276H426v12Zm-52.5-69.5A45.58,45.58,0,0,1,236.189,173H432.811a45.5,45.5,0,1,1,0,91H236.189A45.58,45.58,0,0,1,190.5,218.5Zm288,127A45.58,45.58,0,0,1,432.811,391H236.189a45.5,45.5,0,1,1,0-91H432.811A45.58,45.58,0,0,1,478.5,345.5Z" style="fill:#6FDA63" data-original="#1AE5BE" class="" data-old_color="#1AE5BE"/><path d="M434.158,246.206a27.537,27.537,0,1,0-27.537-27.537A27.568,27.568,0,0,0,434.158,246.206Zm0-43.074a15.537,15.537,0,1,1-15.537,15.537A15.554,15.554,0,0,1,434.158,203.132Z" style="fill:#6FDA63" data-original="#1AE5BE" class="" data-old_color="#1AE5BE"/><path d="M245,231.591V205.747a6,6,0,0,0-12,0v25.844a6,6,0,0,0,12,0Z" style="fill:#6FDA63" data-original="#1AE5BE" class="" data-old_color="#1AE5BE"/><path d="M264,237.591a6,6,0,0,0,6-6V205.747a6,6,0,0,0-12,0v25.844A6,6,0,0,0,264,237.591Z" style="fill:#6FDA63" data-original="#1AE5BE" class="" data-old_color="#1AE5BE"/><path d="M289,237.591a6,6,0,0,0,6-6V205.747a6,6,0,0,0-12,0v25.844A6,6,0,0,0,289,237.591Z" style="fill:#6FDA63" data-original="#1AE5BE" class="" data-old_color="#1AE5BE"/><path d="M315,237.591a6,6,0,0,0,6-6V205.747a6,6,0,0,0-12,0v25.844A6,6,0,0,0,315,237.591Z" style="fill:#6FDA63" data-original="#1AE5BE" class="" data-old_color="#1AE5BE"/><path d="M340,237.591a6,6,0,0,0,6-6V205.747a6,6,0,0,0-12,0v25.844A6,6,0,0,0,340,237.591Z" style="fill:#6FDA63" data-original="#1AE5BE" class="" data-old_color="#1AE5BE"/><path d="M406.621,345.257a27.537,27.537,0,1,0,27.537-27.537A27.569,27.569,0,0,0,406.621,345.257Zm27.537-15.537a15.537,15.537,0,1,1-15.537,15.537A15.553,15.553,0,0,1,434.158,329.72Z" style="fill:#6FDA63" data-original="#1AE5BE" class="" data-old_color="#1AE5BE"/><path d="M239,326.334a6,6,0,0,0-6,6v25.845a6,6,0,0,0,12,0V332.334A6,6,0,0,0,239,326.334Z" style="fill:#6FDA63" data-original="#1AE5BE" class="" data-old_color="#1AE5BE"/><path d="M264,326.334a6,6,0,0,0-6,6v25.845a6,6,0,0,0,12,0V332.334A6,6,0,0,0,264,326.334Z" style="fill:#6FDA63" data-original="#1AE5BE" class="" data-old_color="#1AE5BE"/><path d="M289,326.334a6,6,0,0,0-6,6v25.845a6,6,0,0,0,12,0V332.334A6,6,0,0,0,289,326.334Z" style="fill:#6FDA63" data-original="#1AE5BE" class="" data-old_color="#1AE5BE"/><path d="M315,326.334a6,6,0,0,0-6,6v25.845a6,6,0,0,0,12,0V332.334A6,6,0,0,0,315,326.334Z" style="fill:#6FDA63" data-original="#1AE5BE" class="" data-old_color="#1AE5BE"/><path d="M340,326.334a6,6,0,0,0-6,6v25.845a6,6,0,0,0,12,0V332.334A6,6,0,0,0,340,326.334Z" style="fill:#6FDA63" data-original="#1AE5BE" class="" data-old_color="#1AE5BE"/></g> </svg>
