<?xml version="1.0"?>
<svg xmlns="http://www.w3.org/2000/svg" id="Layer_1" data-name="Layer 1" viewBox="0 0 512 512" width="512px" height="512px" class=""><g><path d="M80.272,44h-40A11.06,11.06,0,0,0,29,55.006V102H69V55.006A11.06,11.06,0,0,1,80.272,44Z" style="fill:#5368F14D" data-original="#D4E1F4" class="active-path" data-old_color="#D4E1F4"/><path d="M69,341.35V114H29V341.35C29,347.565,34.057,353,40.272,353h40C74.057,353,69,347.565,69,341.35Z" style="fill:#5368F14D" data-original="#D4E1F4" class="active-path" data-old_color="#D4E1F4"/><circle cx="283.044" cy="453.088" r="10.575" style="fill:#5368F14D" data-original="#D4E1F4" class="active-path" data-old_color="#D4E1F4"/><circle cx="451.206" cy="453.088" r="10.575" style="fill:#5368F14D" data-original="#D4E1F4" class="active-path" data-old_color="#D4E1F4"/><path d="M382.3,453.088a15.179,15.179,0,1,1-15.179-15.18A15.2,15.2,0,0,1,382.3,453.088Z" style="fill:#5368F14D" data-original="#D4E1F4" class="active-path" data-old_color="#D4E1F4"/><path d="M434.51,205h-3.02a5.828,5.828,0,0,0,3.02,0Z" style="fill:#5368F14D" data-original="#D4E1F4" class="active-path" data-old_color="#D4E1F4"/><path d="M265,244a39.015,39.015,0,0,1,38.8-39h-30a39,39,0,0,0,0,78h30A39.015,39.015,0,0,1,265,244Z" style="fill:#5368F14D" data-original="#D4E1F4" class="active-path" data-old_color="#D4E1F4"/><path d="M265,354a39.015,39.015,0,0,1,38.8-39h-30a39,39,0,0,0,0,78h30A39.015,39.015,0,0,1,265,354Z" style="fill:#5368F14D" data-original="#D4E1F4" class="active-path" data-old_color="#D4E1F4"/><path d="M385.728,32H40.272A23.073,23.073,0,0,0,17,55.006V341.35C17,354.182,27.44,365,40.272,365h189a6,6,0,0,0,0-12h-189C34.057,353,29,347.565,29,341.35V114H397v85.2c0,3.314,12,3.314,12,0V55.006A23.073,23.073,0,0,0,385.728,32ZM29,102V55.006A11.06,11.06,0,0,1,40.272,44H385.728A11.06,11.06,0,0,1,397,55.006V102Z" style="fill:#5368F1" data-original="#0635C9" class="" data-old_color="#0635C9"/><path d="M58.286,52.844A19.572,19.572,0,1,0,77.857,72.416,19.594,19.594,0,0,0,58.286,52.844Zm0,27.143a7.572,7.572,0,1,1,7.571-7.571A7.579,7.579,0,0,1,58.286,79.987Z" style="fill:#5368F1" data-original="#0635C9" class="" data-old_color="#0635C9"/><path d="M107.143,52.844a19.572,19.572,0,1,0,19.571,19.572A19.594,19.594,0,0,0,107.143,52.844Zm0,27.143a7.572,7.572,0,1,1,7.571-7.571A7.58,7.58,0,0,1,107.143,79.987Z" style="fill:#5368F1" data-original="#0635C9" class="" data-old_color="#0635C9"/><path d="M155.1,52.844a19.572,19.572,0,1,0,19.571,19.572A19.6,19.6,0,0,0,155.1,52.844Zm0,27.143a7.572,7.572,0,1,1,7.571-7.571A7.58,7.58,0,0,1,155.1,79.987Z" style="fill:#5368F1" data-original="#0635C9" class="" data-old_color="#0635C9"/><path d="M382.19,66H226.571a6,6,0,0,0,0,12H382.19a6,6,0,0,0,0-12Z" style="fill:#5368F1" data-original="#0635C9" class="" data-old_color="#0635C9"/><path d="M495.061,243.9A50.992,50.992,0,0,0,444.2,193H273.8A50.9,50.9,0,0,0,268,294.469v8.765c-25,2.832-45.061,24.63-45.061,50.721A51.119,51.119,0,0,0,273.8,405H361v21.584A27.521,27.521,0,0,0,340.622,447H304.8c-2.636-9-11.389-16.531-21.76-16.531a22.57,22.57,0,1,0,0,45.139A22.128,22.128,0,0,0,304.8,459h35.818a27.172,27.172,0,0,0,53.006,0h35.818a22.137,22.137,0,0,0,21.76,16.619,22.581,22.581,0,0,0,0-45.161c-10.371,0-19.124,7.542-21.76,16.542H393.628A27.836,27.836,0,0,0,373,426.584V405h71.2a51.119,51.119,0,0,0,50.858-51.045c0-26.091-20.061-47.889-45.061-50.721v-8.765A51.2,51.2,0,0,0,495.061,243.9ZM283.044,463.663a10.575,10.575,0,1,1,10.575-10.575A10.587,10.587,0,0,1,283.044,463.663Zm168.162-21.15a10.575,10.575,0,1,1-10.575,10.575A10.587,10.587,0,0,1,451.206,442.513Zm-68.9,10.575a15.179,15.179,0,1,1-15.179-15.18A15.2,15.2,0,0,1,382.3,453.088ZM280,303v-8H438v8Zm-45-59a39.015,39.015,0,0,1,38.8-39H444.2a39,39,0,0,1,0,78H273.8A39.015,39.015,0,0,1,235,244ZM483,354a39.015,39.015,0,0,1-38.8,39H273.8a39,39,0,0,1,0-78H444.2A39.015,39.015,0,0,1,483,354Z" style="fill:#6FDA63" data-original="#1AE5BE" class="" data-old_color="#1AE5BE"/><path d="M445.371,268.662A24.666,24.666,0,1,0,420.705,244,24.692,24.692,0,0,0,445.371,268.662Zm0-37.331A12.666,12.666,0,1,1,432.705,244,12.68,12.68,0,0,1,445.371,231.331Z" style="fill:#6FDA63" data-original="#1AE5BE" class="" data-old_color="#1AE5BE"/><path d="M282,255.2V232.8a6,6,0,0,0-12,0v22.4a6,6,0,0,0,12,0Z" style="fill:#6FDA63" data-original="#1AE5BE" class="" data-old_color="#1AE5BE"/><path d="M298,261.2a6,6,0,0,0,6-6V232.8a6,6,0,0,0-12,0v22.4A6,6,0,0,0,298,261.2Z" style="fill:#6FDA63" data-original="#1AE5BE" class="" data-old_color="#1AE5BE"/><path d="M320,261.2a6,6,0,0,0,6-6V232.8a6,6,0,0,0-12,0v22.4A6,6,0,0,0,320,261.2Z" style="fill:#6FDA63" data-original="#1AE5BE" class="" data-old_color="#1AE5BE"/><path d="M342,261.2a6,6,0,0,0,6-6V232.8a6,6,0,0,0-12,0v22.4A6,6,0,0,0,342,261.2Z" style="fill:#6FDA63" data-original="#1AE5BE" class="" data-old_color="#1AE5BE"/><path d="M364,261.2a6,6,0,0,0,6-6V232.8a6,6,0,0,0-12,0v22.4A6,6,0,0,0,364,261.2Z" style="fill:#6FDA63" data-original="#1AE5BE" class="" data-old_color="#1AE5BE"/><path d="M420.705,353.706a24.666,24.666,0,1,0,24.666-24.665A24.694,24.694,0,0,0,420.705,353.706Zm24.666-12.665a12.666,12.666,0,1,1-12.666,12.665A12.68,12.68,0,0,1,445.371,341.041Z" style="fill:#6FDA63" data-original="#1AE5BE" class="" data-old_color="#1AE5BE"/><path d="M276,336.507a6,6,0,0,0-6,6v22.4a6,6,0,0,0,12,0v-22.4A6,6,0,0,0,276,336.507Z" style="fill:#6FDA63" data-original="#1AE5BE" class="" data-old_color="#1AE5BE"/><path d="M298,336.507a6,6,0,0,0-6,6v22.4a6,6,0,0,0,12,0v-22.4A6,6,0,0,0,298,336.507Z" style="fill:#6FDA63" data-original="#1AE5BE" class="" data-old_color="#1AE5BE"/><path d="M320,336.507a6,6,0,0,0-6,6v22.4a6,6,0,0,0,12,0v-22.4A6,6,0,0,0,320,336.507Z" style="fill:#6FDA63" data-original="#1AE5BE" class="" data-old_color="#1AE5BE"/><path d="M342,336.507a6,6,0,0,0-6,6v22.4a6,6,0,0,0,12,0v-22.4A6,6,0,0,0,342,336.507Z" style="fill:#6FDA63" data-original="#1AE5BE" class="" data-old_color="#1AE5BE"/><path d="M364,336.507a6,6,0,0,0-6,6v22.4a6,6,0,0,0,12,0v-22.4A6,6,0,0,0,364,336.507Z" style="fill:#6FDA63" data-original="#1AE5BE" class="" data-old_color="#1AE5BE"/></g> </svg>
