<?xml version="1.0"?>
<svg xmlns="http://www.w3.org/2000/svg" id="Layer_1" data-name="Layer 1" viewBox="0 0 512 512" width="512px" height="512px" class=""><g><path d="M177,478.437V423.871A7.769,7.769,0,0,1,173.479,422h-25.05c-.788,0-1.429.221-1.429,1.009v55.428A1.551,1.551,0,0,0,148.429,480h30A1.551,1.551,0,0,1,177,478.437Z" style="fill:#5368F14D" data-original="#D4E1F4" class="active-path" data-old_color="#D4E1F4"/><path d="M177,333.866c0-.788.641-1.866,1.429-1.866h-30c-.788,0-1.429,1.078-1.429,1.866v55.428A1.694,1.694,0,0,0,148.429,391H172.97a5.431,5.431,0,0,1,4.03-2.894Z" style="fill:#5368F14D" data-original="#D4E1F4" class="active-path" data-old_color="#D4E1F4"/><path d="M172,127.683a36.358,36.358,0,0,1,23.292-33.9,6,6,0,0,0,3.847-5.874c-.038-.841-.062-1.691-.062-2.539a53.311,53.311,0,0,1,43.216-52.273,53.168,53.168,0,0,0-63.216,52.273c0,.848.024,1.7.062,2.539a6,6,0,0,1-3.847,5.874A36.319,36.319,0,0,0,188.308,164h20A36.357,36.357,0,0,1,172,127.683Z" style="fill:#5368F14D" data-original="#D4E1F4" class="active-path" data-old_color="#D4E1F4"/><path d="M337.721,81.443A48.331,48.331,0,0,0,279.8,40.648,65.23,65.23,0,0,0,167.086,84.271,48.323,48.323,0,0,0,188.308,176H323.692a48.321,48.321,0,0,0,14.029-94.557Zm11.64,71.909A36.078,36.078,0,0,1,323.692,164H188.308a36.322,36.322,0,0,1-13.016-70.221,6,6,0,0,0,3.847-5.874c-.038-.841-.062-1.691-.062-2.539a53.229,53.229,0,0,1,94.059-34.152,6,6,0,0,0,6.328,1.9,36.3,36.3,0,0,1,46.652,33.334,6,6,0,0,0,4.809,5.648,36.308,36.308,0,0,1,18.436,61.259Z" style="fill:#5368F1" data-original="#0635C9" class="" data-old_color="#0635C9"/><path d="M217,205.742a6,6,0,0,0,6-6v-6.2a6,6,0,0,0-12,0v6.2A6,6,0,0,0,217,205.742Z" style="fill:#5368F1" data-original="#0635C9" class="" data-old_color="#0635C9"/><path d="M211,224.783a6,6,0,1,0,12,0v-5.691a6,6,0,1,0-12,0Z" style="fill:#5368F1" data-original="#0635C9" class="" data-old_color="#0635C9"/><path d="M211,289.865,189.863,269.96a5.85,5.85,0,0,0-8.355.305,6,6,0,0,0,.367,8.48l31.506,29.293a6.03,6.03,0,0,0,8.2,0l31.479-29.293a6,6,0,0,0,.306-8.48,6.305,6.305,0,0,0-8.729-.305L223,289.865V245.011a6,6,0,1,0-12,0Z" style="fill:#5368F1" data-original="#0635C9" class="" data-old_color="#0635C9"/><path d="M294,291.44a6,6,0,0,0-6,6v6.206a6,6,0,0,0,12,0V297.44A6,6,0,0,0,294,291.44Z" style="fill:#5368F1" data-original="#0635C9" class="" data-old_color="#0635C9"/><path d="M300,272.4a6,6,0,0,0-12,0v5.691a6,6,0,0,0,12,0Z" style="fill:#5368F1" data-original="#0635C9" class="" data-old_color="#0635C9"/><path d="M300,207.318l21.637,19.9a6.284,6.284,0,0,0,4.212,1.608,6.122,6.122,0,0,0,4.456-1.912,6,6,0,0,0-.274-8.48l-31.459-29.293a5.99,5.99,0,0,0-8.168,0l-31.47,29.293a6,6,0,0,0-.3,8.48,5.7,5.7,0,0,0,8.231.3L288,207.318v44.853a6,6,0,1,0,12,0Z" style="fill:#5368F1" data-original="#0635C9" class="" data-old_color="#0635C9"/><path d="M292.629,432.094a18.629,18.629,0,1,0,18.628,18.629A18.65,18.65,0,0,0,292.629,432.094Zm0,25.258a6.629,6.629,0,1,1,6.628-6.629A6.637,6.637,0,0,1,292.629,457.352Z" style="fill:#6FDA63" data-original="#1AE5BE" class="" data-old_color="#1AE5BE"/><path d="M335.714,432.094a18.629,18.629,0,1,0,18.629,18.629A18.649,18.649,0,0,0,335.714,432.094Zm0,25.258a6.629,6.629,0,1,1,6.629-6.629A6.637,6.637,0,0,1,335.714,457.352Z" style="fill:#6FDA63" data-original="#1AE5BE" class="" data-old_color="#1AE5BE"/><path d="M164,441.009a6,6,0,0,0-6,6v14.857a6,6,0,0,0,12,0V447.009A6,6,0,0,0,164,441.009Z" style="fill:#6FDA63" data-original="#1AE5BE" class="" data-old_color="#1AE5BE"/><path d="M183,441.009a6,6,0,0,0-6,6v14.857a6,6,0,0,0,12,0V447.009A6,6,0,0,0,183,441.009Z" style="fill:#6FDA63" data-original="#1AE5BE" class="" data-old_color="#1AE5BE"/><path d="M203,441.009a6,6,0,0,0-6,6v14.857a6,6,0,0,0,12,0V447.009A6,6,0,0,0,203,441.009Z" style="fill:#6FDA63" data-original="#1AE5BE" class="" data-old_color="#1AE5BE"/><path d="M222,441.009a6,6,0,0,0-6,6v14.857a6,6,0,0,0,12,0V447.009A6,6,0,0,0,222,441.009Z" style="fill:#6FDA63" data-original="#1AE5BE" class="" data-old_color="#1AE5BE"/><path d="M242,441.009a6,6,0,0,0-6,6v14.857a6,6,0,0,0,12,0V447.009A6,6,0,0,0,242,441.009Z" style="fill:#6FDA63" data-original="#1AE5BE" class="" data-old_color="#1AE5BE"/><path d="M363.571,320H148.429C141.024,320,135,326.461,135,333.866v55.428A13.684,13.684,0,0,0,148.429,403H172v7H148.429A13.091,13.091,0,0,0,135,423.009v55.428A13.559,13.559,0,0,0,148.429,492H363.571A13.559,13.559,0,0,0,377,478.437V423.009A13.091,13.091,0,0,0,363.571,410H340v-7h23.571A13.684,13.684,0,0,0,377,389.294V333.866C377,326.461,370.976,320,363.571,320ZM328,412H184V400H328Zm37,11.009v55.428A1.551,1.551,0,0,1,363.571,480H148.429A1.551,1.551,0,0,1,147,478.437V423.009c0-.788.641-1.009,1.429-1.009h25.05a7.205,7.205,0,0,0,4.664,2H333.857a7.205,7.205,0,0,0,4.664-2h25.05C364.359,422,365,422.221,365,423.009Zm0-33.715A1.694,1.694,0,0,1,363.571,391H339.03a5.584,5.584,0,0,0-5.173-3H178.143a5.584,5.584,0,0,0-5.173,3H148.429A1.694,1.694,0,0,1,147,389.294V333.866c0-.788.641-1.866,1.429-1.866H363.571c.788,0,1.429,1.078,1.429,1.866Z" style="fill:#6FDA63" data-original="#1AE5BE" class="" data-old_color="#1AE5BE"/><path d="M292.629,342.952a18.628,18.628,0,1,0,18.628,18.628A18.649,18.649,0,0,0,292.629,342.952Zm0,25.256a6.628,6.628,0,1,1,6.628-6.628A6.636,6.636,0,0,1,292.629,368.208Z" style="fill:#6FDA63" data-original="#1AE5BE" class="" data-old_color="#1AE5BE"/><path d="M335.714,342.952a18.628,18.628,0,1,0,18.629,18.628A18.648,18.648,0,0,0,335.714,342.952Zm0,25.256a6.628,6.628,0,1,1,6.629-6.628A6.636,6.636,0,0,1,335.714,368.208Z" style="fill:#6FDA63" data-original="#1AE5BE" class="" data-old_color="#1AE5BE"/><path d="M164,351.866a6,6,0,0,0-6,6v14.857a6,6,0,0,0,12,0V357.866A6,6,0,0,0,164,351.866Z" style="fill:#6FDA63" data-original="#1AE5BE" class="" data-old_color="#1AE5BE"/><path d="M183,351.866a6,6,0,0,0-6,6v14.857a6,6,0,0,0,12,0V357.866A6,6,0,0,0,183,351.866Z" style="fill:#6FDA63" data-original="#1AE5BE" class="" data-old_color="#1AE5BE"/><path d="M203,351.866a6,6,0,0,0-6,6v14.857a6,6,0,0,0,12,0V357.866A6,6,0,0,0,203,351.866Z" style="fill:#6FDA63" data-original="#1AE5BE" class="" data-old_color="#1AE5BE"/><path d="M222,351.866a6,6,0,0,0-6,6v14.857a6,6,0,0,0,12,0V357.866A6,6,0,0,0,222,351.866Z" style="fill:#6FDA63" data-original="#1AE5BE" class="" data-old_color="#1AE5BE"/><path d="M242,351.866a6,6,0,0,0-6,6v14.857a6,6,0,0,0,12,0V357.866A6,6,0,0,0,242,351.866Z" style="fill:#6FDA63" data-original="#1AE5BE" class="" data-old_color="#1AE5BE"/></g> </svg>
