<?xml version="1.0"?>
<svg xmlns="http://www.w3.org/2000/svg" id="Layer_1" data-name="Layer 1" viewBox="0 0 512 512" width="512px" height="512px" class=""><g><title>Server to Server2</title><path d="M86,196V168.736c-16.263-3.206-30.542-8.25-40-15.032V196c0,11.1,31.956,26.571,84,26.571,7.05,0,13.717-.292,20-.811C109.9,218.451,86,205.593,86,196Z" style="fill:#5368F14D" data-original="#D4E1F4" class="active-path" data-old_color="#D4E1F4"/><path d="M86,134.286V107.021c-16.263-3.206-30.542-8.25-40-15.032v42.3c0,11.1,31.956,26.571,84,26.571,7.05,0,13.717-.292,20-.81C109.9,156.737,86,143.879,86,134.286Z" style="fill:#5368F14D" data-original="#D4E1F4" class="active-path" data-old_color="#D4E1F4"/><path d="M86,72.571c0-9.592,23.9-22.45,64-25.76-6.283-.519-12.95-.811-20-.811C77.956,46,46,61.476,46,72.571s31.956,26.572,84,26.572c7.05,0,13.717-.293,20-.811C109.9,95.022,86,82.164,86,72.571Z" style="fill:#5368F14D" data-original="#D4E1F4" class="active-path" data-old_color="#D4E1F4"/><path d="M86,258.143V230.45c-16.263-3.206-30.542-8.251-40-15.032v42.725c0,11.1,31.956,26.571,84,26.571,7.05,0,13.717-.292,20-.811C109.9,280.593,86,267.735,86,258.143Z" style="fill:#5368F14D" data-original="#D4E1F4" class="active-path" data-old_color="#D4E1F4"/><path d="M328,377.286v-29.54c-12.071-3.139-22.538-7.406-30-12.757v42.3c0,11.1,31.957,26.571,84,26.571,5.209,0,10.206-.161,15-.451C353.89,400.8,328,387.271,328,377.286Z" style="fill:#5368F14D" data-original="#D4E1F4" class="active-path" data-old_color="#D4E1F4"/><path d="M328,315.571V286.033c-12.071-3.139-22.538-7.407-30-12.758v42.3c0,11.1,31.957,26.572,84,26.572,5.209,0,10.206-.162,15-.452C353.89,339.083,328,325.557,328,315.571Z" style="fill:#5368F14D" data-original="#D4E1F4" class="active-path" data-old_color="#D4E1F4"/><path d="M328,253.857c0-9.985,25.89-23.511,69-26.119-4.794-.29-9.791-.452-15-.452-52.043,0-84,15.476-84,26.571s31.957,26.572,84,26.572c5.209,0,10.206-.162,15-.452C353.89,277.369,328,263.843,328,253.857Z" style="fill:#5368F14D" data-original="#D4E1F4" class="active-path" data-old_color="#D4E1F4"/><path d="M328,439.429V409.461c-12.071-3.139-22.538-7.406-30-12.757v42.725c0,11.1,31.957,26.571,84,26.571,5.209,0,10.206-.161,15-.451C353.89,462.94,328,449.414,328,439.429Z" style="fill:#5368F14D" data-original="#D4E1F4" class="active-path" data-old_color="#D4E1F4"/><path d="M130,34C83.462,34,34,47.519,34,72.571V258.143c0,25.052,49.462,38.571,96,38.571s96-13.519,96-38.571V72.571C226,47.519,176.538,34,130,34Zm84,160.714V196c0,11.1-31.956,26.571-84,26.571S46,207.1,46,196V153.7c17.49,12.542,51.457,19.153,84,19.153s66.51-6.611,84-19.153Zm0-60.428c0,11.1-31.956,26.571-84,26.571s-84-15.475-84-26.571v-42.3c17.49,12.542,51.457,19.154,84,19.154s66.51-6.612,84-19.154ZM130,46c52.044,0,84,15.476,84,26.571s-31.956,26.572-84,26.572S46,83.667,46,72.571,77.956,46,130,46Zm0,238.714c-52.044,0-84-15.476-84-26.571V215.418c17.49,12.541,51.457,19.153,84,19.153s66.51-6.612,84-19.153v42.725C214,269.238,182.044,284.714,130,284.714Z" style="fill:#5368F1" data-original="#0635C9" class="" data-old_color="#0635C9"/><path d="M382,215.286c-46.539,0-96,13.519-96,38.571V439.429C286,464.481,335.461,478,382,478s96-13.519,96-38.571V253.857C478,228.805,428.539,215.286,382,215.286ZM466,376v1.286c0,11.1-31.957,26.571-84,26.571s-84-15.475-84-26.571v-42.3c17.49,12.542,51.457,19.154,84,19.154s66.51-6.612,84-19.154Zm0-60.429c0,11.1-31.957,26.572-84,26.572s-84-15.476-84-26.572v-42.3c17.49,12.542,51.457,19.154,84,19.154s66.51-6.612,84-19.154Zm-84-88.285c52.043,0,84,15.476,84,26.571s-31.957,26.572-84,26.572-84-15.476-84-26.572S329.957,227.286,382,227.286ZM382,466c-52.043,0-84-15.476-84-26.571V396.7c17.49,12.542,51.457,19.153,84,19.153s66.51-6.611,84-19.153v42.725C466,450.524,434.043,466,382,466Z" style="fill:#5368F1" data-original="#0635C9" class="" data-old_color="#0635C9"/><path d="M425.184,141.758,393,173.941V89a6,6,0,0,0-6-6H254a6,6,0,0,0,0,12H381v78.941l-32.184-32.183a6,6,0,1,0-8.485,8.484l42.426,42.427a6,6,0,0,0,8.486,0l42.426-42.427a6,6,0,1,0-8.485-8.484Z" style="fill:#6FDA63" data-original="#1AE5BE" class="" data-old_color="#1AE5BE"/><path d="M259,418H129V339.059l32.184,32.183a6,6,0,0,0,8.485-8.484l-42.426-42.427a6,6,0,0,0-8.486,0L76.331,362.758a6,6,0,1,0,8.485,8.484L117,339.059V424a6,6,0,0,0,6,6H259a6,6,0,0,0,0-12Z" style="fill:#6FDA63" data-original="#1AE5BE" class="" data-old_color="#1AE5BE"/></g> </svg>
