<?xml version="1.0"?>
<svg xmlns="http://www.w3.org/2000/svg" id="Layer_1" data-name="Layer 1" viewBox="0 0 512 512" width="512px" height="512px" class=""><g><title>Database Setting</title><path d="M325.641,332.091a6,6,0,0,0,6.309-.809l1.216-1a70.436,70.436,0,0,1,16.969-9.768l1.385-.593a6.143,6.143,0,0,0,3.614-5.071L357.465,289h-20l-2.331,25.854a6.143,6.143,0,0,1-3.614,5.071l-1.385.593a79.034,79.034,0,0,0-13.71,7.334Z" style="fill:#5368F14D" data-original="#D4E1F4" class="active-path" data-old_color="#D4E1F4"/><path d="M282.607,417.526l20.947-14.258.141-.1,1.293-.936a6,6,0,0,0,2.422-5.706l-.222-1.561a52.666,52.666,0,0,1,.008-19.549l.217-1.523a6,6,0,0,0-2.464-5.736l-21.372-15.195L297.8,328.484l-15.782-7.26-18.44,31.739,21.372,15.195a6,6,0,0,1,2.464,5.736l-.217,1.523a52.666,52.666,0,0,0-.008,19.549l.222,1.561a6,6,0,0,1-2.422,5.706l-1.293.936-.141.1-20.947,14.258,18.413,31.686,15.781-7.261Z" style="fill:#5368F14D" data-original="#D4E1F4" class="active-path" data-old_color="#D4E1F4"/><path d="M350.517,450.451l-1.378-.559a81.731,81.731,0,0,1-17.255-9.976l-1.2-.894a6,6,0,0,0-6.109-.647l-9.013,4.147a81.56,81.56,0,0,0,13.579,7.37l1.378.559a5.913,5.913,0,0,1,3.612,4.91L336.473,481h20l-2.344-25.639A5.913,5.913,0,0,0,350.517,450.451Z" style="fill:#5368F14D" data-original="#D4E1F4" class="active-path" data-old_color="#D4E1F4"/><path d="M132.434,111.784c-25.406-9.2-39.976-21.129-39.976-32.744s14.57-23.55,39.976-32.744c24.145-8.738,55.325-14.051,89.024-15.269q-7.427-.269-15-.273c-39.388,0-76.331,5.52-104.024,15.542C77.028,55.49,62.458,67.425,62.458,79.04s14.57,23.549,39.976,32.744c27.693,10.022,64.636,15.542,104.024,15.542q7.569,0,15-.273C187.759,125.835,156.579,120.522,132.434,111.784Z" style="fill:#5368F14D" data-original="#D4E1F4" class="active-path" data-old_color="#D4E1F4"/><path d="M132.142,214.648C106.74,205.457,92,193.519,92,181.9V120.7A110.848,110.848,0,0,1,62,102.97V181.9c0,11.622,14.74,23.56,40.142,32.751,27.685,10.018,64.8,15.535,104.2,15.535q7.568,0,14.993-.273C187.6,228.693,156.282,223.383,132.142,214.648Z" style="fill:#5368F14D" data-original="#D4E1F4" class="active-path" data-old_color="#D4E1F4"/><path d="M132.191,317.505C106.79,308.314,92,296.376,92,284.754V223.571a110.813,110.813,0,0,1-30-17.735v78.918c0,11.622,14.79,23.56,40.191,32.751,27.686,10.018,64.853,15.535,104.252,15.535q7.558,0,14.978-.273C187.674,331.549,156.328,326.239,132.191,317.505Z" style="fill:#5368F14D" data-original="#D4E1F4" class="active-path" data-old_color="#D4E1F4"/><path d="M132.191,421.077C106.79,411.885,92,399.948,92,388.326v-61.9a110.787,110.787,0,0,1-30-17.735v79.633c0,11.622,14.79,23.559,40.191,32.751,27.686,10.017,64.853,15.534,104.252,15.534q7.51,0,14.879-.277C187.613,435.109,156.305,429.8,132.191,421.077Z" style="fill:#5368F14D" data-original="#D4E1F4" class="active-path" data-old_color="#D4E1F4"/><path d="M236.344,345.04q9.185,0,18.188-.4l1.52-2.615c-11.291,1.409-22.963,2.323-34.889,2.742Q228.687,345.04,236.344,345.04Z" style="fill:#5368F14D" data-original="#D4E1F4" class="active-path" data-old_color="#D4E1F4"/><path d="M314.336,35.012c-28.968-10.484-67.247-16.258-107.992-16.258s-79.311,5.774-108.28,16.258C67.181,46.189,50,61.825,50,79.04V388.326c0,17.222,17.236,32.861,48.116,44.034,28.962,10.48,67.472,16.251,108.228,16.251a391.654,391.654,0,0,0,62.076-4.759l-1.883-11.847a378.648,378.648,0,0,1-60.093,4.606c-39.4,0-76.567-5.517-104.252-15.534C76.79,411.885,62,399.948,62,388.326V308.693c9,7.6,20.438,14.423,36.116,20.1,28.962,10.48,67.472,16.251,108.228,16.251a391.675,391.675,0,0,0,61.993-4.747l-1.879-11.847a378.7,378.7,0,0,1-60.014,4.594c-39.4,0-76.567-5.517-104.252-15.535C76.79,308.314,62,296.376,62,284.754V205.836c9,7.6,20.438,14.423,36.116,20.1,28.962,10.479,67.472,16.251,108.228,16.251s78.979-5.772,107.94-16.251c15.678-5.673,27.716-12.5,35.716-20.1V283h12V79.04C362,61.825,345.22,46.189,314.336,35.012Zm-4.078,179.636c-27.685,10.018-64.516,15.535-103.914,15.535s-76.517-5.517-104.2-15.535C76.74,205.457,62,193.519,62,181.9V102.97c9,7.6,20.441,14.423,36.122,20.1,28.968,10.485,67.476,16.259,108.222,16.259s78.966-5.774,107.935-16.259c15.681-5.674,27.721-12.5,35.721-20.1V181.9C350,193.519,335.661,205.457,310.258,214.648Zm.224-102.864c-27.693,10.022-64.636,15.542-104.024,15.542s-76.331-5.52-104.024-15.542c-25.406-9.2-39.976-21.129-39.976-32.744S77.028,55.49,102.434,46.3c27.693-10.022,64.636-15.542,104.024-15.542s76.331,5.52,104.024,15.542c25.406,9.194,39.976,21.129,39.976,32.744S335.888,102.589,310.482,111.784Z" style="fill:#5368F1" data-original="#0635C9" class="" data-old_color="#0635C9"/><path d="M248.238,176.422a396.217,396.217,0,0,1-41.78,2.167,386.694,386.694,0,0,1-52.2-3.433,6,6,0,0,0-1.627,11.89,398.988,398.988,0,0,0,53.83,3.543,408.226,408.226,0,0,0,43.052-2.235,6,6,0,0,0-1.272-11.932Z" style="fill:#5368F1" data-original="#0635C9" class="" data-old_color="#0635C9"/><path d="M293.486,154.746a17.922,17.922,0,1,0,17.922,17.921A17.942,17.942,0,0,0,293.486,154.746Zm0,23.843a5.922,5.922,0,1,1,5.922-5.922A5.929,5.929,0,0,1,293.486,178.589Z" style="fill:#5368F1" data-original="#0635C9" class="" data-old_color="#0635C9"/><path d="M248.238,277.757a396.259,396.259,0,0,1-41.78,2.167,386.8,386.8,0,0,1-52.2-3.433,6,6,0,0,0-1.627,11.89,398.933,398.933,0,0,0,53.83,3.543,408.269,408.269,0,0,0,43.052-2.235,6,6,0,0,0-1.272-11.932Z" style="fill:#5368F1" data-original="#0635C9" class="" data-old_color="#0635C9"/><path d="M293.486,256.081A17.922,17.922,0,1,0,311.408,274,17.942,17.942,0,0,0,293.486,256.081Zm0,23.843A5.922,5.922,0,1,1,299.408,274,5.929,5.929,0,0,1,293.486,279.924Z" style="fill:#5368F1" data-original="#0635C9" class="" data-old_color="#0635C9"/><path d="M248.238,379.092a396.259,396.259,0,0,1-41.78,2.167,386.857,386.857,0,0,1-52.2-3.433,6,6,0,0,0-1.627,11.889,398.985,398.985,0,0,0,53.83,3.544,408.269,408.269,0,0,0,43.052-2.235,6,6,0,0,0-1.272-11.932Z" style="fill:#5368F1" data-original="#0635C9" class="" data-old_color="#0635C9"/><path d="M457.986,360.946a8.87,8.87,0,0,0,2.35-11.509l-22.029-37.052c-2.547-4.239-7.085-5.572-11.1-3.285l-22.984,10.575a92.428,92.428,0,0,0-16.142-9.348l-2.3-25.316a7.262,7.262,0,0,0-.136-.93A8.833,8.833,0,0,0,377.305,277H334.284a8.474,8.474,0,0,0-8.471,7.693L323.5,310.275a82.8,82.8,0,0,0-16.212,9.343l-23.08-10.605c-.093-.042-.186-.076-.279-.114-3.948-1.577-8.748.018-10.659,3.481l-21.5,37.008a8.828,8.828,0,0,0,2.384,11.6c.04.031.081.061.123.091l20.737,14.743a59.758,59.758,0,0,0-.007,18.744l-21.726,14.789c-.08.056-.159.112-.237.171a8.837,8.837,0,0,0-2.33,11.426l21.572,37.126a8.97,8.97,0,0,0,4.675,3.952,7.638,7.638,0,0,0,6.394-.685l23-10.581a92.653,92.653,0,0,0,16.138,9.345l2.3,25.321a4.393,4.393,0,0,0,.134.706A8.623,8.623,0,0,0,333.281,493H376.3c4.459,0,8.247-3.317,8.468-7.471l2.315-25.477a82.821,82.821,0,0,0,16.21-9.287L426.374,461.4c.1.046.2.1.3.137,3.923,1.552,8.719-.04,10.627-3.474l21.527-37.053a8.815,8.815,0,0,0-2.369-11.534l-19.4-14.783a60.118,60.118,0,0,0,.01-18.87l20.787-14.782C457.9,361.01,457.943,360.978,457.986,360.946Zm-30.846,7.213a6,6,0,0,0-2.464,5.735l.218,1.528a67.354,67.354,0,0,1,.915,9.8,66.6,66.6,0,0,1-.913,9.792l-.211,1.47a6,6,0,0,0,2.3,5.625l20.068,15.288-18.487,31.821-23.621-10.869a6,6,0,0,0-6.307.807l-1.221,1a70.419,70.419,0,0,1-16.971,9.769l-1.38.592a5.822,5.822,0,0,0-3.612,4.851L373.122,481H336.473l-2.344-25.639a5.913,5.913,0,0,0-3.612-4.91l-1.378-.559a81.731,81.731,0,0,1-17.255-9.976l-1.2-.894a6,6,0,0,0-6.109-.647L281.02,449.212l-18.413-31.686,20.947-14.258.141-.1,1.293-.936a6,6,0,0,0,2.422-5.706l-.222-1.561a52.671,52.671,0,0,1,.008-19.55l.217-1.522a6,6,0,0,0-2.464-5.736l-21.372-15.195,18.44-31.739,23.624,10.867a6,6,0,0,0,6.309-.809l1.216-1a70.436,70.436,0,0,1,16.969-9.768l1.385-.593a6.143,6.143,0,0,0,3.614-5.071L337.465,289h36.65l2.34,25.856a6.068,6.068,0,0,0,3.613,5.02l1.383.617a81.606,81.606,0,0,1,17.25,10l1.2.909a6.008,6.008,0,0,0,6.112.656l23.58-10.847,18.888,31.77Z" style="fill:#6FDA63" data-original="#1AE5BE" class="" data-old_color="#1AE5BE"/><path d="M355.542,326.522c-32.913,0-58.694,25.783-58.694,58.7s25.781,58.7,58.694,58.7,58.7-25.783,58.7-58.7S388.457,326.522,355.542,326.522Zm0,105.394a46.7,46.7,0,1,1,46.7-46.7A46.2,46.2,0,0,1,355.542,431.916Z" style="fill:#6FDA63" data-original="#1AE5BE" class="" data-old_color="#1AE5BE"/><path d="M355.543,355.486a29.734,29.734,0,1,0,29.734,29.733A29.415,29.415,0,0,0,355.543,355.486Zm0,47.467a17.734,17.734,0,1,1,17.734-17.734A17.544,17.544,0,0,1,355.543,402.953Z" style="fill:#6FDA63" data-original="#1AE5BE" class="" data-old_color="#1AE5BE"/></g> </svg>
