<?xml version="1.0"?>
<svg xmlns="http://www.w3.org/2000/svg" id="Layer_1" data-name="Layer 1" viewBox="0 0 512 512" width="512px" height="512px" class=""><g><title>Server Security</title><path d="M83,191.5V91.5c0-2.206,2.294-3.5,4.5-3.5h-20c-2.206,0-4.5,1.294-4.5,3.5v100a4.912,4.912,0,0,0,4.5,4.5h20A4.912,4.912,0,0,1,83,191.5Z" style="fill:#5368F14D" data-original="#D4E1F4" class="active-path" data-old_color="#D4E1F4"/><path d="M83,471.5v-100c0-2.206,2.294-3.5,4.5-3.5h-20c-2.206,0-4.5,1.294-4.5,3.5v100a4.912,4.912,0,0,0,4.5,4.5h20A4.912,4.912,0,0,1,83,471.5Z" style="fill:#5368F14D" data-original="#D4E1F4" class="active-path" data-old_color="#D4E1F4"/><path d="M83,331.5v-100c0-2.206,2.294-3.5,4.5-3.5h-20c-2.206,0-4.5,1.294-4.5,3.5v100a4.912,4.912,0,0,0,4.5,4.5h20A4.912,4.912,0,0,1,83,331.5Z" style="fill:#5368F14D" data-original="#D4E1F4" class="active-path" data-old_color="#D4E1F4"/><path d="M301.257,398.5a23,23,0,1,0,23,23A23.026,23.026,0,0,0,301.257,398.5Zm0,34a11,11,0,1,1,11-11A11.013,11.013,0,0,1,301.257,432.5Z" style="fill:#5368F1" data-original="#0635C9" class="" data-old_color="#0635C9"/><path d="M359.257,398.5a23,23,0,1,0,23,23A23.026,23.026,0,0,0,359.257,398.5Zm0,34a11,11,0,1,1,11-11A11.013,11.013,0,0,1,359.257,432.5Z" style="fill:#5368F1" data-original="#0635C9" class="" data-old_color="#0635C9"/><path d="M87,400.5a6,6,0,0,0-6,6v30a6,6,0,0,0,12,0v-30A6,6,0,0,0,87,400.5Z" style="fill:#5368F1" data-original="#0635C9" class="" data-old_color="#0635C9"/><path d="M114,400.5a6,6,0,0,0-6,6v30a6,6,0,0,0,12,0v-30A6,6,0,0,0,114,400.5Z" style="fill:#5368F1" data-original="#0635C9" class="" data-old_color="#0635C9"/><path d="M140,400.5a6,6,0,0,0-6,6v30a6,6,0,0,0,12,0v-30A6,6,0,0,0,140,400.5Z" style="fill:#5368F1" data-original="#0635C9" class="" data-old_color="#0635C9"/><path d="M166,400.5a6,6,0,0,0-6,6v30a6,6,0,0,0,12,0v-30A6,6,0,0,0,166,400.5Z" style="fill:#5368F1" data-original="#0635C9" class="" data-old_color="#0635C9"/><path d="M193,400.5a6,6,0,0,0-6,6v30a6,6,0,0,0,12,0v-30A6,6,0,0,0,193,400.5Z" style="fill:#5368F1" data-original="#0635C9" class="" data-old_color="#0635C9"/><path d="M401,331.5a4.673,4.673,0,0,1-4.243,4.5H362.409c-.825-3-3.04-4-5.652-4h-250c-2.611,0-4.826,1-5.651,4H66.757c-2.2,0-3.757-2.294-3.757-4.5v-100c0-2.206,1.552-3.5,3.757-3.5h34.81c1.037,1,2.971,3,5.19,3H323V219H113V204H300V192H106.757c-2.611,0-4.826,1-5.651,4H66.757c-2.2,0-3.757-2.294-3.757-4.5V91.5c0-2.206,1.552-3.5,3.757-3.5H281V76H66.757A15.392,15.392,0,0,0,51,91.5v100c0,8.822,6.935,16.5,15.757,16.5H101v8H66.757A15.392,15.392,0,0,0,51,231.5v100c0,8.822,6.935,16.5,15.757,16.5H101v8H66.757A15.392,15.392,0,0,0,51,371.5v100c0,8.822,6.935,16.5,15.757,16.5h330C405.58,488,413,480.322,413,471.5v-100c0-8.822-7.42-15.5-16.243-15.5H363v-8h33.757C405.58,348,413,340.322,413,331.5V228H401ZM351,359H113V344H351Zm50,12.5v100a4.673,4.673,0,0,1-4.243,4.5h-330c-2.2,0-3.757-2.294-3.757-4.5v-100c0-2.206,1.552-3.5,3.757-3.5h34.809c1.038,1,2.972,3,5.191,3h250c2.22,0,4.153-2,5.191-3h34.809C398.963,368,401,369.294,401,371.5Z" style="fill:#5368F1" data-original="#0635C9" class="" data-old_color="#0635C9"/><path d="M301.257,258.5a23,23,0,1,0,23,23A23.026,23.026,0,0,0,301.257,258.5Zm0,34a11,11,0,1,1,11-11A11.013,11.013,0,0,1,301.257,292.5Z" style="fill:#5368F1" data-original="#0635C9" class="" data-old_color="#0635C9"/><path d="M359.257,304.5a23,23,0,1,0-23-23A23.026,23.026,0,0,0,359.257,304.5Zm0-34a11,11,0,1,1-11,11A11.012,11.012,0,0,1,359.257,270.5Z" style="fill:#5368F1" data-original="#0635C9" class="" data-old_color="#0635C9"/><path d="M81,266.5v30a6,6,0,0,0,12,0v-30a6,6,0,0,0-12,0Z" style="fill:#5368F1" data-original="#0635C9" class="" data-old_color="#0635C9"/><path d="M108,266.5v30a6,6,0,0,0,12,0v-30a6,6,0,0,0-12,0Z" style="fill:#5368F1" data-original="#0635C9" class="" data-old_color="#0635C9"/><path d="M134,266.5v30a6,6,0,0,0,12,0v-30a6,6,0,0,0-12,0Z" style="fill:#5368F1" data-original="#0635C9" class="" data-old_color="#0635C9"/><path d="M160,266.5v30a6,6,0,0,0,12,0v-30a6,6,0,0,0-12,0Z" style="fill:#5368F1" data-original="#0635C9" class="" data-old_color="#0635C9"/><path d="M187,266.5v30a6,6,0,0,0,12,0v-30a6,6,0,0,0-12,0Z" style="fill:#5368F1" data-original="#0635C9" class="" data-old_color="#0635C9"/><path d="M81,126.5v30a6,6,0,0,0,12,0v-30a6,6,0,0,0-12,0Z" style="fill:#5368F1" data-original="#0635C9" class="" data-old_color="#0635C9"/><path d="M108,126.5v30a6,6,0,0,0,12,0v-30a6,6,0,0,0-12,0Z" style="fill:#5368F1" data-original="#0635C9" class="" data-old_color="#0635C9"/><path d="M134,126.5v30a6,6,0,0,0,12,0v-30a6,6,0,0,0-12,0Z" style="fill:#5368F1" data-original="#0635C9" class="" data-old_color="#0635C9"/><path d="M160,126.5v30a6,6,0,0,0,12,0v-30a6,6,0,0,0-12,0Z" style="fill:#5368F1" data-original="#0635C9" class="" data-old_color="#0635C9"/><path d="M187,126.5v30a6,6,0,0,0,12,0v-30a6,6,0,0,0-12,0Z" style="fill:#5368F1" data-original="#0635C9" class="" data-old_color="#0635C9"/><path d="M351.717,250.782,363.757,256a6.167,6.167,0,0,0,2.432.5,6.084,6.084,0,0,0,2.4-.492l13.373-5.823A129.091,129.091,0,0,0,461,131.09V77.773a5.889,5.889,0,0,0-3.057-5.3L369.29,25.205a5.938,5.938,0,0,0-5.675.033L277.237,72.511A6.117,6.117,0,0,0,274,77.773v54.545A129.562,129.562,0,0,0,351.717,250.782ZM286,81.327,366.312,37.32,449,81.375V131.09a117.1,117.1,0,0,1-71.729,108.051c-.014.006.033.012.018.018l-11.085,4.8-9.7-4.172A117.545,117.545,0,0,1,286,132.318Z" style="fill:#6FDA63" data-original="#1AE5BE" class="" data-old_color="#1AE5BE"/><path d="M349.381,163.534a6,6,0,0,0,8.349.758l54.333-44.2a6,6,0,1,0-7.573-9.309L354.7,151.286l-19.525-22.865a6,6,0,0,0-9.126,7.793Z" style="fill:#6FDA63" data-original="#1AE5BE" class="" data-old_color="#1AE5BE"/></g> </svg>
