<?xml version="1.0"?>
<svg xmlns="http://www.w3.org/2000/svg" id="Layer_1" data-name="Layer 1" viewBox="0 0 512 512" width="512px" height="512px" class=""><g><path d="M105.443,341.271a222.146,222.146,0,0,1-25.989-71.49A188.972,188.972,0,0,1,76,233.886V133.527L219.908,54.72l-10.14-5.4L56,133.527V230.9A222.02,222.02,0,0,0,156,416.269V401.388A222.812,222.812,0,0,1,105.443,341.271Z" style="fill:#5368F14D" data-original="#D4E1F4" class="active-path" data-old_color="#D4E1F4"/><path d="M108,233.886v-77.5L220.356,94.813l-10.141-5.4L88,156.388v77.5a177.041,177.041,0,0,0,68.119,139.556,14.011,14.011,0,0,1,7.494-10.759A176.975,176.975,0,0,1,108,233.886Z" style="fill:#5368F14D" data-original="#D4E1F4" class="active-path" data-old_color="#D4E1F4"/><path d="M188,460.929V375.214A2.242,2.242,0,0,1,190.513,373h-20A2.242,2.242,0,0,0,168,375.214v85.715c0,1.418,1.095,3.071,2.513,3.071h20C189.1,464,188,462.347,188,460.929Z" style="fill:#5368F14D" data-original="#D4E1F4" class="active-path" data-old_color="#D4E1F4"/><path d="M188,340.929V255.214A2.242,2.242,0,0,1,190.513,253h-20A2.242,2.242,0,0,0,168,255.214v85.715c0,1.418,1.095,3.071,2.513,3.071h20C189.1,344,188,342.347,188,340.929Z" style="fill:#5368F14D" data-original="#D4E1F4" class="active-path" data-old_color="#D4E1F4"/><path d="M344.793,147.539,212.953,77.294a6.005,6.005,0,0,0-5.712.033L79.091,147.572A5.978,5.978,0,0,0,76,152.834v81.052a189.064,189.064,0,0,0,82.586,156.232l6.78-9.91A177.088,177.088,0,0,1,88,233.886v-77.5L210.215,89.409,336,156.436v75.626c0,4.428-.2,8.906-.526,13.308l11.981.9c.352-4.7.545-9.479.545-14.2V152.834A6.026,6.026,0,0,0,344.793,147.539Z" style="fill:#5368F1" data-original="#0635C9" class="" data-old_color="#0635C9"/><path d="M376.734,124.679l-164.2-87.474a6.042,6.042,0,0,0-5.728.033L47.156,124.712A6.039,6.039,0,0,0,44,129.974V230.9A234.233,234.233,0,0,0,158.864,432.256L165,421.936A222.194,222.194,0,0,1,56,230.9V133.527L209.768,49.32,368,133.575v95.057c0,5.551-.3,11.164-.71,16.682l12.01.9c.436-5.816.7-11.731.7-17.579V129.974A6.082,6.082,0,0,0,376.734,124.679Z" style="fill:#5368F1" data-original="#0635C9" class="" data-old_color="#0635C9"/><path d="M371.513,397.5a20.572,20.572,0,1,0,20.571,20.571A20.595,20.595,0,0,0,371.513,397.5Zm0,29.143a8.572,8.572,0,1,1,8.571-8.572A8.581,8.581,0,0,1,371.513,426.643Z" style="fill:#6FDA63" data-original="#1AE5BE" class="" data-old_color="#1AE5BE"/><path d="M421.228,397.5A20.572,20.572,0,1,0,441.8,418.071,20.6,20.6,0,0,0,421.228,397.5Zm0,29.143a8.572,8.572,0,1,1,8.571-8.572A8.581,8.581,0,0,1,421.228,426.643Z" style="fill:#6FDA63" data-original="#1AE5BE" class="" data-old_color="#1AE5BE"/><path d="M188,399.214a6,6,0,0,0-6,6v25.715a6,6,0,0,0,12,0V405.214A6,6,0,0,0,188,399.214Z" style="fill:#6FDA63" data-original="#1AE5BE" class="" data-old_color="#1AE5BE"/><path d="M211,399.214a6,6,0,0,0-6,6v25.715a6,6,0,0,0,12,0V405.214A6,6,0,0,0,211,399.214Z" style="fill:#6FDA63" data-original="#1AE5BE" class="" data-old_color="#1AE5BE"/><path d="M233,399.214a6,6,0,0,0-6,6v25.715a6,6,0,0,0,12,0V405.214A6,6,0,0,0,233,399.214Z" style="fill:#6FDA63" data-original="#1AE5BE" class="" data-old_color="#1AE5BE"/><path d="M256,399.214a6,6,0,0,0-6,6v25.715a6,6,0,0,0,12,0V405.214A6,6,0,0,0,256,399.214Z" style="fill:#6FDA63" data-original="#1AE5BE" class="" data-old_color="#1AE5BE"/><path d="M279,399.214a6,6,0,0,0-6,6v25.715a6,6,0,0,0,12,0V405.214A6,6,0,0,0,279,399.214Z" style="fill:#6FDA63" data-original="#1AE5BE" class="" data-old_color="#1AE5BE"/><path d="M453.37,241H170.513A14.238,14.238,0,0,0,156,255.214v85.715c0,8.034,6.479,15.071,14.513,15.071H199v5H170.513A14.238,14.238,0,0,0,156,375.214v85.715c0,8.034,6.479,15.071,14.513,15.071H453.37c8.035,0,14.63-7.037,14.63-15.071V375.214A14.337,14.337,0,0,0,453.37,361H425v-5h28.37c8.035,0,14.63-7.037,14.63-15.071V255.214A14.337,14.337,0,0,0,453.37,241ZM413,363H211V352H413Zm43,12.214v85.715c0,1.418-1.212,3.071-2.63,3.071H170.513c-1.418,0-2.513-1.653-2.513-3.071V375.214A2.242,2.242,0,0,1,170.513,373h29.366a7.521,7.521,0,0,0,4.92,2H419.084a7.517,7.517,0,0,0,4.92-2H453.37A2.344,2.344,0,0,1,456,375.214Zm0-34.285c0,1.418-1.212,3.071-2.63,3.071H424.5a5.225,5.225,0,0,0-5.415-4H204.8a5.226,5.226,0,0,0-5.415,4H170.513c-1.418,0-2.513-1.653-2.513-3.071V255.214A2.242,2.242,0,0,1,170.513,253H453.37a2.344,2.344,0,0,1,2.63,2.214Z" style="fill:#6FDA63" data-original="#1AE5BE" class="" data-old_color="#1AE5BE"/><path d="M371.513,277.5a20.572,20.572,0,1,0,20.571,20.571A20.595,20.595,0,0,0,371.513,277.5Zm0,29.143a8.572,8.572,0,1,1,8.571-8.572A8.581,8.581,0,0,1,371.513,306.643Z" style="fill:#6FDA63" data-original="#1AE5BE" class="" data-old_color="#1AE5BE"/><path d="M421.228,277.5A20.572,20.572,0,1,0,441.8,298.071,20.6,20.6,0,0,0,421.228,277.5Zm0,29.143a8.572,8.572,0,1,1,8.571-8.572A8.581,8.581,0,0,1,421.228,306.643Z" style="fill:#6FDA63" data-original="#1AE5BE" class="" data-old_color="#1AE5BE"/><path d="M188,279.214a6,6,0,0,0-6,6v25.715a6,6,0,0,0,12,0V285.214A6,6,0,0,0,188,279.214Z" style="fill:#6FDA63" data-original="#1AE5BE" class="" data-old_color="#1AE5BE"/><path d="M211,279.214a6,6,0,0,0-6,6v25.715a6,6,0,0,0,12,0V285.214A6,6,0,0,0,211,279.214Z" style="fill:#6FDA63" data-original="#1AE5BE" class="" data-old_color="#1AE5BE"/><path d="M233,279.214a6,6,0,0,0-6,6v25.715a6,6,0,0,0,12,0V285.214A6,6,0,0,0,233,279.214Z" style="fill:#6FDA63" data-original="#1AE5BE" class="" data-old_color="#1AE5BE"/><path d="M256,279.214a6,6,0,0,0-6,6v25.715a6,6,0,0,0,12,0V285.214A6,6,0,0,0,256,279.214Z" style="fill:#6FDA63" data-original="#1AE5BE" class="" data-old_color="#1AE5BE"/><path d="M279,279.214a6,6,0,0,0-6,6v25.715a6,6,0,0,0,12,0V285.214A6,6,0,0,0,279,279.214Z" style="fill:#6FDA63" data-original="#1AE5BE" class="" data-old_color="#1AE5BE"/></g> </svg>
